<?xml version="1.0" standalone="no"?><!DOCTYPE svg PUBLIC "-//W3C//DTD SVG 1.1//EN" "http://www.w3.org/Graphics/SVG/1.1/DTD/svg11.dtd"><svg t="1779356868460" class="icon" viewBox="0 0 1037 1024" version="1.1" xmlns="http://www.w3.org/2000/svg" p-id="1544" xmlns:xlink="http://www.w3.org/1999/xlink" width="202.5390625" height="200"><path d="M562.201852 861.528553h248.388751a54.824544 54.824544 0 0 0 0-109.649089H562.201852a54.824544 54.824544 0 0 0 0 109.649089zM303.62551 454.142734a147.808385 147.808385 0 0 0 147.572834-147.572833c0.058888-39.39594-15.310829-76.495256-43.16476-104.349187s-64.953246-43.341423-104.408074-43.341422A147.867272 147.867272 0 0 0 156.052677 308.572086a147.808385 147.808385 0 0 0 147.572833 145.570648zM265.58399 308.042096l0.058888-1.648859a38.159296 38.159296 0 0 1 37.982632-37.923745 38.100408 38.100408 0 0 1 0 76.083041 38.159296 38.159296 0 0 1-38.04152-36.510437z" fill="#4DA1FF" p-id="1545"></path><path d="M912.230951 10.010926H115.066766A102.170338 102.170338 0 0 0 13.249756 111.827937v797.340848a101.934786 101.934786 0 0 0 101.81701 101.758123h797.340848a100.698143 100.698143 0 0 0 71.902007-29.915004c19.197424-19.256311 29.73834-44.872506 29.679453-72.019783V111.827937A101.993674 101.993674 0 0 0 912.230951 10.010926z m-7.832078 109.590201v781.73558H122.839956V119.601127h781.558917z" fill="#4DA1FF" p-id="1546"></path></svg>