<?xml version="1.0" standalone="no"?><!DOCTYPE svg PUBLIC "-//W3C//DTD SVG 1.1//EN" "http://www.w3.org/Graphics/SVG/1.1/DTD/svg11.dtd"><svg t="1779356858953" class="icon" viewBox="0 0 1034 1024" version="1.1" xmlns="http://www.w3.org/2000/svg" p-id="1394" xmlns:xlink="http://www.w3.org/1999/xlink" width="201.953125" height="200"><path d="M809.729739 330.067762h93.086829a109.379268 109.379268 0 0 0 108.346965-109.154854V128.544203A109.379268 109.379268 0 0 0 902.68192 19.389349h-92.952181a109.289503 109.289503 0 0 0-109.154854 109.154854v10.861626a48.069428 48.069428 0 0 0-33.033706-13.105763h-185.994127a48.563138 48.563138 0 0 0-48.383607 48.473373v297.393118H355.426518c-7.585185 0-14.766426 1.79531-21.18466 4.89222v-7.719833c0-29.128906-11.400219-56.507385-32.001402-77.108569a108.526496 108.526496 0 0 0-77.063686-31.866755H132.628534c-29.128906 0-56.552268 11.355336-77.153452 31.95652a108.481613 108.481613 0 0 0-31.911637 77.153452v92.368705a109.289503 109.289503 0 0 0 109.109972 109.154854l92.413587 0.179531c59.604295 0 108.167434-48.024545 109.109972-107.44931 6.418234 3.141793 13.599474 4.981986 21.229542 5.161517h78.051106v297.438001c0 26.705238 21.678369 48.383607 48.383608 48.383607h185.994126l1.79531 0.044883c11.669516 0 22.351611-4.174096 30.699803-10.996274a109.289503 109.289503 0 0 0 109.154854 108.167434h93.041947a109.513916 109.513916 0 0 0 108.391847-109.154855v-92.368705a109.469034 109.469034 0 0 0-108.526496-109.154854h-92.907298a109.289503 109.289503 0 0 0-109.154854 109.154854v18.536577a48.383607 48.383607 0 0 0-30.699803-10.996274h-137.565636v-249.099277h127.287486c17.27986 0 32.45023-9.111199 40.977953-22.800438v15.933377a109.334385 109.334385 0 0 0 109.109972 108.93044l93.086829 0.179532a109.513916 109.513916 0 0 0 108.391847-109.154855v-92.368705a109.289503 109.289503 0 0 0-108.526496-109.109971h-92.997063a109.199737 109.199737 0 0 0-109.065089 109.109971v25.313873a48.248959 48.248959 0 0 0-40.977953-22.800438h-127.287486V223.112163h135.50103c12.746702 0 24.416217-4.981986 33.033706-13.105764v10.906509a109.199737 109.199737 0 0 0 109.109971 109.154854z m-12.522288-204.126758a12.342757 12.342757 0 0 1 12.163226-9.739558H902.861451a11.938812 11.938812 0 0 1 11.624633 12.432523v92.862415a11.849047 11.849047 0 0 1-11.849047 11.849047H809.684856a12.432522 12.432522 0 0 1-12.387639-12.38764V128.633969l-0.089766-2.692965z m-0.224414 683.115494a12.432522 12.432522 0 0 1 12.38764-11.041157h93.221477a11.893929 11.893929 0 0 1 11.57975 12.387639v92.952181a11.804164 11.804164 0 0 1-11.849046 11.804164h-92.907298a12.432522 12.432522 0 0 1-12.38764-12.38764v-92.368705l-0.044883-1.346482z m-0.044882-339.582906a12.432522 12.432522 0 0 1 12.432522-12.208109h93.221477a11.893929 11.893929 0 0 1 11.57975 12.38764v92.952181a11.804164 11.804164 0 0 1-11.849046 11.804163h-92.907298a12.432522 12.432522 0 0 1-12.38764-12.387639V469.473592h-0.089765z m-676.742144 0a12.477405 12.477405 0 0 1 12.208109-12.208109h92.638001c6.822178 0 12.38764 5.565461 12.38764 12.38764v92.368705a12.432522 12.432522 0 0 1-12.38764 12.387639H132.763182a12.477405 12.477405 0 0 1-12.477405-12.387639l-0.089766-92.548236z" fill="#4DA1FF" p-id="1395"></path></svg>