<?xml version="1.0" standalone="no"?><!DOCTYPE svg PUBLIC "-//W3C//DTD SVG 1.1//EN" "http://www.w3.org/Graphics/SVG/1.1/DTD/svg11.dtd"><svg t="1779356854421" class="icon" viewBox="0 0 1128 1024" version="1.1" xmlns="http://www.w3.org/2000/svg" p-id="1244" xmlns:xlink="http://www.w3.org/1999/xlink" width="220.3125" height="200"><path d="M1117.482448 442.951092a414.127797 414.127797 0 0 0-159.908547-276.085198 62.11917 62.11917 0 0 0-86.249016 11.098625 60.020922 60.020922 0 0 0 11.153842 84.095551c20.927258 15.957724 39.701051 34.731518 55.658776 55.658776a295.07986 295.07986 0 0 1 58.364411 219.653384 295.687247 295.687247 0 0 1-115.07231 197.345699 60.076139 60.076139 0 0 0-9.33168 84.31642l0.110434 0.220868a61.290914 61.290914 0 0 0 85.255109 9.88385 415.232138 415.232138 0 0 0 77.800809-77.800809 413.575627 413.575627 0 0 0 82.218172-308.387166zM633.836398 27.277218C602.252251 8.889943 565.477703 3.92041 526.052737 14.908601L105.464546 223.408142a136.441305 136.441305 0 0 0-96.188083 130.864384v310.871933c0 60.297007 38.596711 112.918846 92.930277 129.649609l418.600378 201.81828 37.216285 13.80426c2.816069 0.110434 5.687355 0.276085 8.448207 0.220868a136.441305 136.441305 0 0 0 135.336964-137.048692V145.828202a134.619143 134.619143 0 0 0-4.583015-35.44934A135.7787 135.7787 0 0 0 633.836398 27.277218zM579.778916 146.04907v727.926233a16.289027 16.289027 0 0 1-6.460393 13.307307 13.141655 13.141655 0 0 1-7.619952 2.650418L151.846859 684.415206l-9.000377-3.368239a16.068159 16.068159 0 0 1-11.595579-15.847291V354.051658c-0.165651-7.233432 4.583014-13.638609 15.239903-17.062065L565.422486 129.760043a13.749043 13.749043 0 0 1 7.840819 2.595201c4.141278 3.147371 6.626045 8.172122 6.515611 13.693826z" fill="#4DA1FF" p-id="1245"></path></svg>